<mxfile host="app.diagrams.net" modified="2023-06-14T03:12:52.389Z" agent="Mozilla/5.0 (Macintosh; Intel Mac OS X 10_15_7) AppleWebKit/605.1.15 (KHTML, like Gecko) Version/16.3 Safari/605.1.15" version="21.3.8" etag="ccgL4TdRp0mKepsUyTo3" type="github">
  <diagram name="第 1 页" id="21wryE9cpPkN6CBN8J82">
    <mxGraphModel>
      <root>
        <mxCell id="0" />
        <mxCell id="1" parent="0" />
      </root>
    </mxGraphModel>
  </diagram>
</mxfile>
